<svg width="23" height="23" fill="none" xmlns="http://www.w3.org/2000/svg"><path d="M0 0c.168.027.313.053.46.078l1.821.32 1.948.34c.603.106 1.21.214 1.813.319l1.812.316c.608.107 1.217.212 1.822.32l1.835.322 1.813.316c.603.105 1.206.213 1.812.318.608.108 1.217.213 1.825.32.404.071.808.144 1.212.213a.301.301 0 01.149.073l3.26 2.951 1.312 1.188c.032.027.068.048.106.075L9.604 23C6.402 15.327 3.204 7.673 0 0zm9.547 19.598l.03-.007c.025-.18.049-.361.07-.544.051-.391.1-.785.15-1.176.05-.4.1-.798.154-1.199.05-.389.098-.777.146-1.164l.152-1.176c.05-.391.098-.785.146-1.176l.152-1.187c.05-.391.098-.785.149-1.176.058-.453.115-.908.175-1.361.012-.092-.01-.151-.089-.215C9.54 8.24 8.302 7.26 7.061 6.282a5997.884 5997.884 0 01-4.448-3.51c-.031-.025-.062-.047-.094-.07-.007.004-.014.011-.021.016l7.049 16.88zm1.307.01a.1.1 0 01.027.015l9.662-11.202c-.005-.007-.007-.014-.012-.02-.04.004-.082.006-.123.013-.1.018-.204.039-.305.055-.914.158-1.83.313-2.743.469-.957.165-1.911.332-2.866.496-.767.133-1.534.263-2.3.396-.097.016-.099.016-.111.105-.039.284-.075.565-.11.849-.051.389-.1.778-.147 1.164-.05.4-.101.799-.154 1.2l-.147 1.164-.151 1.187-.15 1.176-.15 1.187-.155 1.199a63.62 63.62 0 01-.065.546zM16.546 4.15l-.002-.03c-4.369-.766-8.737-1.53-13.105-2.294l-.012.025c2.673 2.111 5.349 4.22 8.03 6.336 1.7-1.35 3.394-2.694 5.089-4.037zm1.416.453c-.029.02-.053.034-.077.055l-4.729 3.754a.007.007 0 000 .009c0 .002.003.004.012.018l7.573-1.306c-.05-.08-2.57-2.375-2.779-2.53z" fill="#27DCB9"/></svg>