<svg width="90" height="86" fill="none" xmlns="http://www.w3.org/2000/svg"><path d="M59.295 21.988s.577-3.097 2.425-5.488c1.847-2.384 5.754-4.372 5.754-4.372L22.562 5.524l36.733 16.464z" fill="#A3A9FF"/><path d="M59.295 21.988s-5.099.521-8.919 4.05c-3.82 3.528-4.096 7.026-4.096 7.026L22.561 5.524l36.733 16.464z" fill="#EDE6F3"/><path d="M28.794 41.403s1.762-4.352 6.812-6.852c5.058-2.5 10.674-1.495 10.674-1.495L22.562 5.524l6.232 35.879z" fill="#A3A9FF"/><path d="M28.794 41.403s-2.899-1.898-7.326-1.684c-4.428.214-7.884 3.671-7.884 3.671l8.978-37.866 6.232 35.88z" fill="#EDE6F3"/><path d="M2.92 42.28s2.305-2.742 5.845-2.04c3.547.703 4.819 3.15 4.819 3.15l8.978-37.866L2.919 42.281z" fill="#A3A9FF"/><path d="M53.08 75.423a.877.877 0 001.602-.719L22.218 2.614a.877.877 0 00-1.602.72l32.464 72.09z" fill="#1D1D3D"/><path d="M25.237 25.359s1.486-3.241 4.327-4.622c2.833-1.381 6.096-.048 6.096-.048L22.562 5.524l2.675 19.835z" fill="#fff"/><path d="M52.73 15.565s-7.783-1.202-11.494.509c-3.71 1.71-5.583 4.614-5.583 4.614L22.562 5.525l30.169 10.04z" fill="#C5C9FF"/><path d="M52.73 15.565s1.17-1.533 4.765-2.958c3.593-1.419 9.98-.479 9.98-.479L22.561 5.524l30.169 10.04zM2.92 42.28s3.052-4.26 5.746-5.91c2.694-1.65 4.732-1.395 4.732-1.395l9.164-29.45L2.919 42.28z" fill="#fff"/><path d="M13.399 34.975s2.593-5.15 5.59-7.277c2.999-2.126 6.248-2.34 6.248-2.34L22.57 5.526l-9.17 29.45z" fill="#C5C9FF"/><path d="M64.892 62.267c3.379 2.345 7.419.806 7.419.806 2.644-2.308 4.076-3.481 6.316-5.716.178-.178-1.91 10.334-1.91 10.334-.478.683-.922 1.074-1.615 1.685-.426.377-5.763 4.984-8.814 3.225-1.322-.768-1.675-2.426-2.057-4.25-.105-.507-.922-7.183.661-6.084zM56.96 76.998c0 3.298 10.503 5.35 10.503 5.35.14-.369-4.04-2.785-.66-5.13 1.65-1.143-9.842-2.14-9.843-.22zm-20.419-11.03c-5.141 2.346-8.373 16.893-8.373 16.893.32.147 8.667-8.501 17.194-9.174 4.052-.32 5.757.803 6.163.013 1.025-1.995-8.819-10.545-14.984-7.732zm2.865-26.933c-1.176-.49-6.978.82-11.826 9.102-4.731 8.088-3.47 15.98-3.488 16.882 0 0 1.799-5.24 11.494-3.48 7.614 1.377 7.967-20.767 3.82-22.504z" fill="#85D0FF"/><path d="M37.533 40.087c-4.357 6.316-4.942 16.453-3.636 20.997 3.368 11.727 19.631 17.531 31.473 17.15 2.277-.073 5.472-.513 5.472-.513 8.3.916 18.509 7.475 18.509 7.475-7.198-7.035-7.051-9.674-7.051-9.674-.338-.066-2.46-.073-2.204-.806 0 0 .175-.941.588-1.43 0 0 .11-.842.294-2.748.277-2.875 1.91-4.287 1.91-4.287-.178-.189-2.476.99-3.747 2.018-4.15 3.357-5.655 5.64-5.655 5.64a4.124 4.124 0 01-.955-.146 8.15 8.15 0 01-3.526-1.759 15.008 15.008 0 01-2.864-3.444c-.361.036-6.317 5.149-16.586-1.279-7.211-4.511-12.306-18.826-11.912-19.022 0 0 .962 2.462 3.232 5.057 5.48 6.263 15.865 8.441 24.311 6.669 11.99-2.515 18.656-11.707 21.006-16.398.067-.13-3.102-3.72-8.042-7.531 0 0-4.419-4.515-7.712-4.994-3.526-.513-4.15.89-4.15.89-2.865-.587-9.822-.733-12.854.183a17.233 17.233 0 00-2.203-.806c-2.013-.543-4.81-.192-6.464 1.392-1.028.985-1.689 1.686-2.35 3.005 0 0-2.534.953-4.884 4.36z" fill="#85D0FF"/><path d="M40.38 56.36c4.112 5.685 7.93 11.08 14.686 13.266 3.244 1.073 6.609.54 9.875.337.763-4.665 1.469-7.56 1.8-9.829-10.452 1.217-21.806-.996-28.042-9.592-.4-.557.63 4.3 1.68 5.818z" fill="#fff"/><path d="M48.952 36.86c-.86-.146-4.398 1.673-6.197 3.457-3.494 3.463-2.316 7.315-1.953 8.188.973 2.345 4.014 6.05 11.13 7.116 6.041.904 8.841-.762 9.194-.88 6.147-2.052 6.391-8.283 6.391-8.283.835-1.185 2.07-3.595 2.07-3.595s-3.424.072-6.17-1.26c-3.975-1.927-8-3.667-14.465-4.743zM35.097 44.8c-.157-1.08-3.245 1.703-3.418 1.87-3.828 3.7-5.648 12.632-5.516 12.563 4.186-2.014 7.302-1.16 7.302-1.16-.78-5.773 1.794-12.16 1.632-13.273zm-.429 7.537c-.293.94-.514 3.201.037 5.737.774 3.565 2.754 6.826 2.754 6.826.166-.233 1.115-1.369 1.115-1.369.735-.787 2.082.53 1.763.77-1.876 1.433-7.189 7.742-10.136 14.147-.125.272 2.731-2.38 4.398-3.202 3.812-1.872 6.746-3.045 12.406-3.143 1.644-.026 2.826.227 3.124.682 0 0-.605.819-.339 1.141.881 1.075 8.618 2.284 8.618 2.284 2.418 4.38 6.886 4.8 6.886 4.8-.588-.74-1.496-3.747-.557-3.938 2.782-.569 8.358-.03 8.946.147 6.576 1.996 10.366 3.7 9.453 3.157-.105-.062-3.037-2.932-3.477-4.153 0 0-7.401.8-18.87-1.814-3.093-.705-10.65-2.995-11.835-4.52-4.04-5.203-7.158-7.264-9.128-7.787-3.248-.86-5.158-9.765-5.158-9.765z" fill="#50B4F2"/><path d="M66.644 68.753c1.186.183 7.075-.88 8.2-3.052 1.656-3.2 3.04-7.733 3.165-7.486.294.573-.949 8.502-1.952 9.623-2.057 2.285-5.674 4.871-7.75 3.59-.961-.595-2.34-2.78-1.663-2.675z" fill="#50B4F2"/><path d="M39.902 54.486c7.136 12.254 22.344 11.952 25.647 9.818.252-.164.752-4.364.752-4.364-.364-.293-12.127 1.878-19.034-1.904-6.094-3.338-7.717-7.634-8.656-7.044 0 0 .704 2.48 1.291 3.494z" fill="#E8E8E8"/><path d="M50.18 37.812c-3.113.485-6.514 3.224-7.052 7.328-.23 1.75-.098 4.609 1.126 5.034.161.056 2.937 2.698 6.642 3.738 2.512.702 7.573.258 8.097.073 3.421-1.208 5.459-3.811 5.876-4.544.679-1.186 2.057-4.104.783-5.815-1.274-1.71-14.389-5.983-15.473-5.814z" fill="#fff"/><path d="M52.382 38.105c-3.112.485-6.71 2.986-7.565 7.036-1.084 5.13 3.132 7.856 5.423 8.258 3.984.696 6.61-.219 7.143-.403 3.42-1.208 5.306-4.147 5.729-4.874.678-1.186 2.056-4.104.783-5.815-1.274-1.71-10.429-4.37-11.513-4.202z" fill="#1D1D3D"/><path d="M50.861 45.629c1.354 0 2.452-1.026 2.452-2.293 0-1.266-1.098-2.292-2.452-2.292-1.354 0-2.452 1.026-2.452 2.292 0 1.267 1.098 2.293 2.452 2.293z" fill="#fff"/><path d="M85.805 42.568c-.092-.138-9.082-7.93-11.704-9.676-2.39-1.59-4.88-1.791-5.754-1.72-1.291.11-.962.688-2.477.915-1.298.194-.78.233-2.697 0-1.367-.167-4.063-.88-4.99-.66-3.896.917-8.712.14-10.597.514-.863.17-2.933.586-3.788 2.199-.42.794-1.508 2.259-1.165 2.467.102.062 2.871-2.243 4.675-2.654 2.727-.62 6.246.333 6.246.333 7.895 2.72 13.212 4.545 12.993 4.105-.48-.96-9.125-3.886-9.06-4.325.031-.2.419-.313 1.894-.513 4.59-.623 9.652.22 11.072.464.229.04-2.561-.945-2.477-1.27.059-.208.99-.147 1.682-.02 1.279.237 1.703.4 3.059.936 1.668.661 7.734 6.18 10.207 9.09-.134.01-1.118-.124-1.263-.114-3.033.208-4.753 1.487-7.307 3.21-4.124 2.785-3.652 10.78-21.78 13.047-1.527.191 1.55.968 5.138 1.194 12.505.784 18.283-4.544 24.401-10.408.93-.893 3.268-3.425 3.933-5.962a1.445 1.445 0 00-.241-1.152zM36.981 40.28c-.473-.424-2.01.566-2.938 1.173a22.667 22.667 0 00-5.508 5.057c-3.116 4.25-3.916 8.544-4.334 10.92-.7 3.997.106 6.181.276 6.193.244.016-.484-2.639 1.68-8.758 1.548-4.379 5.739-9.235 9.87-11.36.545-.28 1.513-2.727.954-3.225zM53.14 69.737c-.168.38 3.573 1.898 4.885 2.638 1.478.84 5.124 2.367 9.717 3.037 5.635.822 6.882.522 8.351-1.466.11-.146 5.435-6.53 6.243-7.439.188-.21-6.78 6.353-7.528 6.67-1.46.618-2.428.765-3.893.22-2.203-.823-2.888-3.653-4.745-3.811-.69-.06-1.043.206-2.243.623-.844.293-2.955.134-5.755-.1-4.359-.355-4.85-.783-5.031-.372zm12.779-3.879c1.125.505 6.38.012 7.603-.958 1.616-1.281 4.486-6.684 4.486-6.684s-1.377 1.124-2.613 2.366c-2.926 2.94-2.672 3.026-3.232 3.298-2.435 1.172-5.7-.615-5.7-.615l-.544 2.593z" fill="#DEFFFD"/><path d="M82.213 75.323s-1.253-.267-1.877-.475c.119-.314 1.185-1.124 1.185-1.124-.135-1.003-.342-1.943-.173-2.967.28-1.692 1.871-4.104 3.045-5.339l-2.756.653c-1.677 1.21-4.004 3.099-8.022 7.182-.147.147-1.222-.215-2.241-.655 2.078-1.332 5.212-3.698 5.419-4.332.322-1.076.585-2.169.788-3.274.343-1.728 1.763-8.538 1.763-8.538-.672.17-7.05 6.036-7.253 6.156-.666.403-3.873.742-5.631-.377-.026.286-.348 1.972-.348 1.972 5.288.919 6.826.262 7.164.09l-1.515-.244c1.872-.485 5.52-4.9 6.035-5.306.068 1.593-1.603 8.523-1.698 8.69-.294.513-4.887 2.724-7.222 3.633a13.13 13.13 0 01-2.52-3.152l-.06-.028s-2.658 1.333-3.536 1.563c-3.135.82-6.49.404-9.392-.941-10.547-4.892-14.102-16.254-14.282-16.654 1.616 2.29 4.227 4.828 6.61 6.215 4.18 2.434 9.125 3.509 13.94 3.484a27.938 27.938 0 0013.843-3.719c3.584-2.065 6.858-4.984 9.665-8.01 1.873-2.016 3.783-5.24 3.563-6.78-.147-1.068-4.627-4.818-7.602-7.126-.53-.412-1.137-1.063-1.616-1.488a28.43 28.43 0 00-1.717-1.426c-1.834-1.381-3.823-2.596-6.164-2.713-.846-.043-1.773.002-2.531.426-.264.147-.44.459-.667.586-.147.085.047.015-.204-.066a3.285 3.285 0 00-.55-.089 24.088 24.088 0 00-1.366-.158 46 46 0 00-3.274-.17c-2.136-.035-4.325 0-6.428.41-.284.056-.735.262-1.005.23-.411-.048-.9-.377-1.294-.516a8.17 8.17 0 00-3.526-.486c-2.394.216-4.292 1.612-5.619 3.569-.197.293-.368.826-.603 1.046-.14.085-.287.155-.441.208a10.52 10.52 0 00-1.801 1.227c-.89.754-1.686 1.61-2.371 2.554-3.733.82-7.218 3.518-9.447 6.541-2.566 3.488-3.94 7.54-4.554 11.775-.395 2.722-.637 6.243-.465 8.991.013.208 3.525-5.986 10.544-4.397a15.99 15.99 0 001.74 4c-7.825 6.631-7.64 16.927-7.632 16.984 5.02-4.085 11.296-7.558 17.456-8.292 3.656 1.92 7.685 3.185 11.712 3.908l.158.028c4.196 3.757 8.792 4.56 10.577 3.779.094-.041-2.434-2-2.239-3.177h.184c1.557-.073 3.111-.245 4.657-.44 1.254-.16 2.676.294 3.882.613 5.255 1.368 10.93 3.352 15.496 6.281.143.082-6.265-6.957-7.784-10.335zm3.662 7.058c-2.566-1.386-5.18-2.265-7.89-3.249-1.564-.57-4.274-1.574-6.282-1.699-1.1-.068-4.882.075-6.52.118-.498 3.148 1.46 4.211 1.46 4.211-5.63-.056-8.52-3.908-8.763-4.726-3.29-.524-6.625-1.407-9.108-2.546-1.37-.838.893-1.612.9-1.612-7.444-.362-14.836 2.676-19.94 8.047 1.46-2.468 4.25-5.832 8.99-7.396 0 0-3.82.245-8.537 4.731 1.382-5.41 9.255-15.58 8.871-15.29-.941.713-.92.624-1.748 1.453-3.055-1.8-3.926-8.501-4.044-9.199-.015.916.01 1.802.066 2.674.052.813.15 1.622.294 2.424-3.536-.138-6.67-.123-8.931 2.578.146-5.032.639-8.58 2.938-13.133 2.046-4.065 6.05-7.345 8.907-8.486-.415.755-.79 1.53-1.125 2.324-3.378 1.967-6.914 6.237-7.743 10.338 2.123-5.161 5.246-7.672 7.228-8.845 0 0-.283 2.085-.202 1.853.526-1.51 1.44-3.48 3.051-5.913 1.145-1.73 2.708-3.304 4.601-4.227.09-.031.177-.07.259-.119.19-.155.326-.586.47-.812.178-.289.375-.566.587-.831.773-.951 1.697-1.878 2.834-2.375.13-.057.265-.11.398-.158.551-.17 1.582-.21 2.135-.22 2.334-.042 4.539 1.062 6.633 1.94a290.344 290.344 0 0010.799 4.354c.633.242-6.538-4.195-10.577-5.913a34.763 34.763 0 013.379-.212 48.589 48.589 0 013.997.063c3.273.255 6.349 1.423 7.133 1.688.33.112-1.078-.866-3.533-1.715a2.17 2.17 0 01.258-.165c.707-.387 1.589-.44 2.376-.403 2.524.098 4.626 1.44 6.577 2.968.54.422 1.05.88 1.561 1.337.23.205 8.08 6.596 8.155 7.153.055.45-.725 1.954-1.121 2.492a44.26 44.26 0 01-2.894 3.498c-2.672 2.932-5.767 5.503-9.285 7.354-7.786 4.096-17.71 4.311-25.602.339-3.336-1.68-6.378-4.368-8.195-7.69a3.7 3.7 0 01-.44.81c.37 1.999.916 3.96 1.63 5.864 1.16 3.043 4.605 10.762 16.974 16.184 6.757 2.965 13.82 3.862 13.176 3.707-3.434-.831-7.74-1.374-13.347-5.424 4.147.675 6.023.557 8.325-.347a7.1 7.1 0 01.996-.323s3.548 4.562 7.367 5.002c0 0 .778-.497.955-.688a71.11 71.11 0 011.29-1.36 72.856 72.856 0 013.875-3.711c.805-.713 1.616-1.43 2.497-2.061l.037-.027c-1.616 2.199-2.35 4.489-2.016 6.743 0 0-1.054 1.013-1.087 1.366 0 0 1.58.806 2.033.951.538.864 2.19 4.033 4.921 6.32l-.003-.01z" fill="#1D1D3D"/><path d="M37.948 48.138c.009 0 .015.03.018.078-.036-.101-.018-.078-.018-.078zM64.36 67.766c-.019-.1.028.177 0 .025v-.025zm19.517-24.075l.182-.308c-3.59-.906-7.67.383-10.158 3.106-.157.172 3.253-3.208 9.976-2.798zm-1.37 31.186c.011-.008.016-.017.013-.024a.038.038 0 00-.013.024zm.188.549v.028-.037c-.008-.026-.019-.04 0 .037a.033.033 0 000-.028zM69.587 42.77c-5.974-2.729-15.186-6.097-17.235-6.472-1.983-.362-5.037.121-7.051 2.198 0 0-2.12 1.515-3.026 4.643-1.095 3.792 1.696 7.452 1.831 7.532 1.919 2.224 4.313 3.4 7.198 4.046 3.379.76 7.295.733 10.395-1.098.064-.038 5.532-3.036 4.952-9.065.49.257 2.936-1.783 2.936-1.783zm-8.244 9.55a.264.264 0 00-.117.035c-2.956 1.76-6.481 1.475-9.712.776-3.062-.663-5.621-1.67-7.575-4.236-1.01-1.846-.965-4.383-.09-6.105.971-1.906 3.643-3.665 5.863-4.377.942-.069 1.954-.078 2.73.078 2.05.41 4.062.992 6.015 1.738 3.439 1.32 4.715 1.658 7.271 3.616.388 3.203-1.608 6.65-4.385 8.475zm-24.438-1.733c-.462.218-.158 1.869.23 1.578 1.307-.971 2.03-2.447 2.149-4.055.017-.23-.24-1.32-.275-1.005-.154 1.35-.796 2.868-2.104 3.482z" fill="#1D1D3D"/><path d="M65.113 69.41l1.851-9.951-2.083.694-2.083 9.952 2.315-.694z" fill="#1D1D3D"/></svg>