<svg width="128" height="128" fill="none" xmlns="http://www.w3.org/2000/svg"><circle cx="64" cy="64" r="64" fill="#C7F1FC"/><path d="M17.491 81.439a4.312 4.312 0 100-8.624 4.312 4.312 0 000 8.624z" fill="#DEFFFD"/><path opacity=".35" d="M19.013 79.917a4.312 4.312 0 01-4.312-4.312c0-.798.221-1.543.6-2.184a4.302 4.302 0 00-2.122 3.706 4.312 4.312 0 004.312 4.312c1.58 0 2.956-.853 3.707-2.12a4.286 4.286 0 01-2.185.598z" fill="#85D0FF"/><path d="M9.121 86.998a3.044 3.044 0 100-6.088 3.044 3.044 0 000 6.088z" fill="#DEFFFD"/><path opacity=".35" d="M10.39 85.73a3.044 3.044 0 01-2.69-4.466 3.042 3.042 0 001.421 5.734c1.167 0 2.18-.658 2.69-1.622a3.029 3.029 0 01-1.421.353z" fill="#85D0FF"/><path d="M8.528 76.113a.761.761 0 100-1.522.761.761 0 000 1.522z" fill="#DEFFFD"/><path opacity=".35" d="M9.035 75.86c-.56 0-1.015-.455-1.015-1.015 0-.021.005-.04.006-.062a.756.756 0 00-.26.569.76.76 0 001.33.501c-.02.001-.04.006-.061.006z" fill="#85D0FF"/><path d="M14.702 91.855a2.029 2.029 0 100-4.058 2.029 2.029 0 000 4.058z" fill="#DEFFFD"/><path opacity=".35" d="M15.462 91.094a2.03 2.03 0 01-1.763-3.031 2.027 2.027 0 001.002 3.792c.756 0 1.414-.414 1.763-1.027a2.018 2.018 0 01-1.002.266z" fill="#85D0FF"/><path d="M118.292 58.037a5.98 5.98 0 100-11.96 5.98 5.98 0 000 11.96z" fill="#DEFFFD"/><path opacity=".35" d="M120.403 55.926a5.98 5.98 0 01-5.98-5.98c0-1.107.306-2.14.83-3.03a5.966 5.966 0 00-2.941 5.14 5.98 5.98 0 005.98 5.981c2.191 0 4.1-1.183 5.14-2.941a5.94 5.94 0 01-3.029.83z" fill="#85D0FF"/><path d="M106.684 65.746a4.221 4.221 0 100-8.442 4.221 4.221 0 000 8.442z" fill="#DEFFFD"/><path opacity=".35" d="M108.442 63.988a4.221 4.221 0 01-3.731-6.194 4.22 4.22 0 001.972 7.953 4.218 4.218 0 003.731-2.25 4.2 4.2 0 01-1.972.49z" fill="#85D0FF"/><path d="M105.861 50.65a1.055 1.055 0 100-2.11 1.055 1.055 0 000 2.11z" fill="#DEFFFD"/><path opacity=".35" d="M106.564 50.298c-.778 0-1.408-.63-1.408-1.407 0-.029.007-.056.009-.085-.219.194-.36.474-.36.789a1.051 1.051 0 001.844.695c-.029.002-.056.008-.085.008z" fill="#85D0FF"/><path d="M114.422 72.482a2.814 2.814 0 100-5.628 2.814 2.814 0 000 5.628z" fill="#DEFFFD"/><path opacity=".35" d="M115.477 71.428a2.814 2.814 0 01-2.445-4.204 2.814 2.814 0 103.835 3.835c-.41.234-.884.369-1.39.369z" fill="#85D0FF"/><path d="M72.19 60.703c3.9 2.707 8.562.931 8.562.931 3.052-2.665 4.705-4.018 7.29-6.598.206-.205-2.204 11.927-2.204 11.927-.552.788-1.065 1.24-1.865 1.946-.492.434-6.651 5.752-10.173 3.722-1.526-.887-1.932-2.8-2.373-4.907-.122-.583-1.065-8.29.763-7.02zm-9.157 17.002c0 3.807 12.123 6.175 12.123 6.175.16-.426-4.663-3.214-.763-5.921 1.906-1.32-11.358-2.47-11.36-.254zm-23.567-12.73c-5.934 2.707-9.664 19.498-9.664 19.498.37.169 10.003-9.813 19.846-10.59 4.676-.368 6.644.928 7.112.016 1.184-2.303-10.178-12.17-17.294-8.924zm3.306-31.087c-1.356-.567-8.053.945-13.648 10.504-5.461 9.335-4.005 18.446-4.027 19.486 0 0 2.077-6.048 13.267-4.018 8.788 1.59 9.195-23.968 4.408-25.972z" fill="#85D0FF"/><path d="M40.61 35.103c-5.028 7.29-5.703 18.99-4.196 24.235 3.888 13.534 22.658 20.234 36.326 19.794 2.628-.085 6.315-.592 6.315-.592 9.58 1.057 21.363 8.628 21.363 8.628-8.308-8.12-8.138-11.166-8.138-11.166-.39-.076-2.84-.085-2.543-.93 0 0 .202-1.087.678-1.65 0 0 .127-.973.339-3.172.32-3.32 2.204-4.949 2.204-4.949-.205-.218-2.857 1.142-4.323 2.33-4.79 3.874-6.528 6.51-6.528 6.51a4.758 4.758 0 01-1.102-.17 9.408 9.408 0 01-4.07-2.03 17.318 17.318 0 01-3.305-3.975c-.417.042-7.29 5.943-19.144-1.475-8.323-5.208-14.203-21.73-13.748-21.956 0 0 1.11 2.842 3.73 5.836 6.325 7.23 18.31 9.743 28.06 7.698 13.838-2.903 21.532-13.512 24.245-18.926.076-.15-3.58-4.294-9.283-8.692 0 0-5.1-5.211-8.901-5.764-4.07-.593-4.79 1.026-4.79 1.026-3.306-.676-11.336-.845-14.835.212a19.892 19.892 0 00-2.543-.93c-2.323-.626-5.551-.222-7.46 1.607-1.187 1.137-1.95 1.945-2.713 3.468 0 0-2.925 1.1-5.638 5.033z" fill="#85D0FF"/><path d="M43.897 53.885c4.746 6.562 9.153 12.788 16.95 15.312 3.745 1.238 7.628.624 11.398.388.88-5.384 1.695-8.725 2.077-11.343-12.062 1.405-25.167-1.15-32.365-11.072-.46-.643.728 4.964 1.94 6.715z" fill="#fff"/><path d="M53.791 31.38c-.992-.17-5.076 1.93-7.153 3.988-4.032 3.998-2.672 8.444-2.253 9.45 1.122 2.708 4.632 6.985 12.845 8.214 6.973 1.044 10.205-.88 10.612-1.015 7.095-2.368 7.377-9.56 7.377-9.56.963-1.369 2.389-4.15 2.389-4.15s-3.953.083-7.121-1.455c-4.588-2.223-9.234-4.231-16.696-5.473zM37.8 40.542c-.182-1.247-3.746 1.966-3.946 2.159-4.418 4.27-6.519 14.58-6.366 14.5 4.832-2.324 8.428-1.338 8.428-1.338-.9-6.664 2.07-14.037 1.884-15.321zm-.495 8.699c-.34 1.086-.594 3.695.042 6.622.893 4.114 3.179 7.878 3.179 7.878.191-.269 1.287-1.58 1.287-1.58.848-.908 2.402.613 2.034.888-2.165 1.655-8.297 8.936-11.698 16.33-.145.313 3.151-2.748 5.076-3.697 4.4-2.16 7.785-3.514 14.318-3.627 1.897-.03 3.262.262 3.606.786 0 0-.698.946-.391 1.318 1.017 1.24 9.947 2.636 9.947 2.636 2.79 5.055 7.947 5.54 7.947 5.54-.678-.854-1.726-4.325-.643-4.545 3.211-.657 9.647-.036 10.326.17 7.59 2.303 11.965 4.27 10.91 3.643-.12-.07-3.505-3.383-4.013-4.793 0 0-8.542.924-21.778-2.094-3.571-.814-12.294-3.456-13.661-5.216-4.663-6.006-8.262-8.384-10.536-8.988-3.748-.993-5.952-11.271-5.952-11.271z" fill="#50B4F2"/><path d="M74.21 68.189c1.37.211 8.167-1.015 9.466-3.522 1.91-3.694 3.508-8.926 3.652-8.64.339.661-1.096 9.812-2.254 11.106-2.373 2.638-6.547 5.622-8.943 4.143-1.11-.686-2.703-3.209-1.921-3.087z" fill="#50B4F2"/><path d="M43.346 51.722c8.236 14.143 25.79 13.795 29.6 11.332.292-.189.869-5.037.869-5.037-.42-.338-13.996 2.168-21.969-2.198-7.033-3.852-8.907-8.81-9.99-8.13 0 0 .813 2.863 1.49 4.033z" fill="#E8E8E8"/><path d="M55.207 32.477c-3.593.56-7.518 3.722-8.138 8.459-.267 2.018-.114 5.319 1.298 5.81.187.063 3.391 3.114 7.667 4.313 2.9.81 8.74.298 9.346.085 3.949-1.394 6.3-4.399 6.782-5.245.783-1.368 2.373-4.737.903-6.711-1.47-1.974-16.607-6.906-17.858-6.712z" fill="#fff"/><path d="M57.75 32.816c-3.593.56-7.745 3.446-8.732 8.12-1.251 5.921 3.615 9.068 6.26 9.532 4.598.803 7.63-.253 8.243-.466 3.949-1.394 6.124-4.786 6.613-5.625.783-1.369 2.373-4.737.903-6.711-1.47-1.974-12.036-5.045-13.287-4.85z" fill="#1D1D3D"/><path d="M55.994 41.5c1.562 0 2.83-1.185 2.83-2.647 0-1.46-1.268-2.645-2.83-2.645-1.563 0-2.83 1.184-2.83 2.645 0 1.462 1.267 2.646 2.83 2.646z" fill="#fff"/><path d="M96.326 37.966c-.106-.16-10.482-9.152-13.509-11.167-2.759-1.836-5.632-2.068-6.641-1.987-1.49.129-1.11.796-2.859 1.058-1.498.223-.9.269-3.112 0-1.579-.193-4.69-1.015-5.759-.762-4.497 1.058-10.056.161-12.232.593-.995.196-3.384.676-4.371 2.538-.485.917-1.74 2.607-1.346 2.847.118.071 3.314-2.588 5.396-3.062 3.148-.716 7.21.384 7.21.384 9.111 3.139 15.248 5.245 14.996 4.737-.555-1.108-10.532-4.485-10.456-4.991.035-.232.482-.362 2.186-.592 5.296-.72 11.139.254 12.778.534.264.046-2.956-1.09-2.858-1.465.067-.24 1.141-.169 1.94-.023 1.476.274 1.966.462 3.531 1.08 1.925.764 8.927 7.134 11.782 10.491-.155.012-1.292-.142-1.458-.13-3.5.24-5.487 1.716-8.434 3.704-4.76 3.215-4.215 12.443-25.139 15.059-1.762.221 1.79 1.118 5.93 1.379 14.434.905 21.102-5.246 28.164-12.014 1.075-1.03 3.772-3.952 4.54-6.881a1.666 1.666 0 00-.28-1.33zm-56.351-2.64c-.546-.489-2.32.653-3.391 1.354a26.164 26.164 0 00-6.358 5.837c-3.596 4.906-4.52 9.861-5.002 12.603-.808 4.614.122 7.135.319 7.148.282.019-.56-3.045 1.938-10.108 1.787-5.054 6.624-10.659 11.392-13.112.629-.323 1.746-3.146 1.102-3.722zm18.65 33.998c-.195.44 4.124 2.191 5.638 3.046 1.705.969 5.914 2.732 11.215 3.505 6.504.949 7.944.602 9.64-1.692.126-.169 6.272-7.537 7.205-8.586.217-.243-7.826 7.333-8.69 7.698-1.685.714-2.802.883-4.492.254-2.544-.95-3.334-4.216-5.477-4.399-.797-.068-1.204.239-2.589.72-.975.337-3.411.155-6.643-.116-5.03-.41-5.596-.903-5.807-.43zm14.749-4.476c1.299.582 7.363.013 8.776-1.107 1.865-1.478 5.177-7.714 5.177-7.714s-1.59 1.297-3.016 2.73c-3.377 3.394-3.084 3.494-3.73 3.807-2.81 1.353-6.58-.709-6.58-.709l-.627 2.993z" fill="#DEFFFD"/><path d="M92.18 75.772s-1.446-.308-2.167-.548c.137-.362 1.368-1.298 1.368-1.298-.156-1.157-.395-2.242-.2-3.424.324-1.952 2.16-4.737 3.515-6.161l-3.18.752c-1.937 1.398-4.623 3.577-9.26 8.29-.17.17-1.41-.249-2.587-.756 2.4-1.538 6.016-4.268 6.255-5 .372-1.242.676-2.503.91-3.779.395-1.995 2.035-9.855 2.035-9.855-.777.197-8.139 6.967-8.373 7.106-.768.465-4.469.856-6.498-.435-.03.33-.402 2.276-.402 2.276 6.103 1.06 7.879.303 8.269.105l-1.748-.283c2.16-.56 6.371-5.656 6.965-6.124.078 1.839-1.85 9.837-1.96 10.03-.34.592-5.641 3.144-8.335 4.193a15.156 15.156 0 01-2.91-3.638l-.068-.032s-3.068 1.538-4.082 1.804c-3.618.947-7.49.466-10.84-1.087-12.173-5.645-16.276-18.76-16.484-19.222 1.864 2.645 4.879 5.573 7.63 7.173 4.823 2.81 10.531 4.05 16.088 4.022a32.247 32.247 0 0015.978-4.292c4.137-2.384 7.916-5.752 11.156-9.246 2.162-2.326 4.366-6.048 4.111-7.824-.17-1.234-5.34-5.561-8.774-8.226-.612-.475-1.312-1.226-1.865-1.717a32.843 32.843 0 00-1.982-1.646c-2.116-1.594-4.411-2.996-7.114-3.132-.977-.049-2.046.004-2.921.493-.305.169-.509.53-.77.676-.17.099.054.017-.236-.076a3.778 3.778 0 00-.634-.103 27.374 27.374 0 00-1.577-.183 53.15 53.15 0 00-3.779-.196c-2.465-.04-4.991 0-7.42.474-.326.064-.847.303-1.159.265-.475-.055-1.04-.434-1.494-.595a9.431 9.431 0 00-4.069-.562c-2.763.25-4.954 1.861-6.485 4.12-.227.338-.426.954-.697 1.208-.16.098-.33.178-.508.24-.74.398-1.438.873-2.08 1.416a16.79 16.79 0 00-2.736 2.947c-4.308.948-8.331 4.06-10.903 7.55-2.962 4.025-4.547 8.703-5.256 13.59-.456 3.142-.736 7.206-.538 10.378.016.24 4.07-6.91 12.17-5.075a18.456 18.456 0 002.008 4.617c-9.03 7.653-8.816 19.536-8.808 19.602 5.793-4.715 13.038-8.722 20.147-9.57 4.22 2.216 8.871 3.676 13.518 4.51l.183.032c4.843 4.337 10.148 5.264 12.208 4.362.108-.047-2.81-2.308-2.584-3.666h.212c1.797-.085 3.59-.283 5.374-.508 1.449-.186 3.09.339 4.482.707 6.064 1.579 12.616 3.87 17.885 7.25.165.094-7.231-8.03-8.984-11.93zm4.227 8.146c-2.962-1.599-5.978-2.614-9.107-3.75-1.805-.657-4.933-1.816-7.251-1.96-1.268-.08-5.634.086-7.525.135-.575 3.634 1.686 4.86 1.686 4.86-6.5-.063-9.834-4.51-10.116-5.453-3.796-.606-7.646-1.624-10.512-2.94-1.581-.967 1.031-1.86 1.04-1.86-8.593-.418-17.124 3.09-23.016 9.288 1.685-2.85 4.906-6.732 10.376-8.537 0 0-4.408.283-9.852 5.461 1.595-6.244 10.681-17.982 10.239-17.647-1.087.822-1.063.72-2.018 1.677-3.527-2.078-4.532-9.813-4.668-10.618-.017 1.057.012 2.08.077 3.086.06.938.173 1.873.339 2.798-4.081-.159-7.698-.142-10.309 2.976.17-5.808.738-9.904 3.391-15.158 2.362-4.692 6.984-8.478 10.281-9.794a28.04 28.04 0 00-1.298 2.681c-3.9 2.27-7.98 7.199-8.937 11.932 2.45-5.956 6.055-8.854 8.342-10.208 0 0-.326 2.406-.233 2.139.607-1.743 1.662-4.017 3.522-6.825 1.32-1.998 3.125-3.813 5.31-4.88a1.65 1.65 0 00.299-.136c.22-.18.376-.677.542-.938.206-.333.432-.653.678-.959.892-1.098 1.959-2.167 3.27-2.74.152-.066.306-.127.46-.183.636-.196 1.826-.242 2.464-.254 2.694-.049 5.239 1.225 7.657 2.24A335.147 335.147 0 0074 33.376c.73.279-7.547-4.842-12.207-6.825a40.063 40.063 0 013.9-.245c1.525-.03 3.071-.026 4.613.072 3.777.295 7.327 1.643 8.233 1.95.38.128-1.245-1-4.078-1.98a2.34 2.34 0 01.297-.191c.817-.447 1.834-.508 2.743-.465 2.913.113 5.34 1.663 7.59 3.425.625.488 1.213 1.015 1.803 1.543.265.237 9.325 7.613 9.412 8.256.064.52-.836 2.255-1.294 2.876a51.089 51.089 0 01-3.34 4.039c-3.084 3.383-6.657 6.35-10.717 8.487-8.986 4.727-20.44 4.976-29.549.391-3.85-1.939-7.362-5.042-9.459-8.875-.13.332-.3.646-.509.935a40.2 40.2 0 001.882 6.768c1.34 3.512 5.316 12.42 19.592 18.679 7.799 3.422 15.95 4.458 15.208 4.278-3.964-.959-8.933-1.585-15.405-6.26 4.786.779 6.951.644 9.608-.4a8.157 8.157 0 011.15-.373s4.094 5.265 8.502 5.773c0 0 .9-.574 1.103-.794.488-.53.986-1.053 1.488-1.57a84.064 84.064 0 014.473-4.283c.929-.822 1.865-1.65 2.882-2.379l.043-.03c-1.865 2.537-2.713 5.18-2.327 7.782 0 0-1.217 1.169-1.254 1.577 0 0 1.822.93 2.346 1.098.62.996 2.528 4.654 5.68 7.293l-.003-.01z" fill="#1D1D3D"/><path d="M41.09 44.396c.011 0 .018.037.022.093-.043-.121-.022-.093-.022-.093zm30.485 22.655c-.023-.12.034.215 0 .03v-.03zM94.1 39.263l.21-.355c-4.143-1.046-8.851.441-11.723 3.584-.182.198 3.753-3.703 11.513-3.23zM92.519 75.26c.014-.01.02-.02.016-.03a.048.048 0 00-.016.03zm.218.631a.183.183 0 010 .033v-.043c-.01-.03-.022-.047 0 .043a.04.04 0 000-.033zM77.608 38.2c-6.896-3.15-17.528-7.037-19.893-7.47-2.29-.418-5.814.14-8.139 2.537 0 0-2.446 1.748-3.492 5.358-1.263 4.377 1.958 8.601 2.114 8.694 2.214 2.567 4.978 3.923 8.308 4.67 3.9.878 8.42.845 11.997-1.268.075-.044 6.385-3.503 5.715-10.462.567.296 3.39-2.059 3.39-2.059zm-9.515 11.022a.303.303 0 00-.136.041c-3.411 2.03-7.48 1.702-11.209.895-3.535-.765-6.488-1.927-8.743-4.89-1.167-2.13-1.114-5.058-.104-7.046 1.12-2.199 4.205-4.229 6.767-5.051 1.087-.08 2.255-.09 3.152.09a43.224 43.224 0 016.941 2.006c3.97 1.522 5.443 1.913 8.393 4.173.447 3.697-1.857 7.676-5.061 9.782zm-28.206-2.001c-.535.253-.184 2.157.266 1.823 1.507-1.122 2.341-2.826 2.479-4.682.02-.264-.277-1.522-.317-1.159-.178 1.558-.92 3.31-2.428 4.018z" fill="#1D1D3D"/><path d="M72.443 68.948L74.58 57.46l-2.404.802-2.404 11.486 2.67-.801zM49.667 99.27h1.74C51.356 97.375 49.662 96 47.23 96c-2.401 0-4.242 1.358-4.242 3.397 0 1.647 1.192 2.612 3.114 3.126l1.414.381c1.28.335 2.267.751 2.267 1.803 0 1.155-1.116 1.918-2.652 1.918-1.391 0-2.548-.613-2.653-1.901h-1.812c.117 2.143 1.794 3.466 4.476 3.466 2.81 0 4.43-1.461 4.43-3.466 0-2.132-1.923-2.958-3.442-3.328l-1.169-.3c-.935-.237-2.18-.67-2.173-1.803 0-1.005.929-1.75 2.401-1.75 1.373 0 2.349.635 2.478 1.727zm9.204 8.724h1.805v-4.477h2.571l2.431 4.477h2.057l-2.653-4.789c1.467-.538 2.197-1.745 2.197-3.334 0-2.178-1.367-3.71-4.142-3.71H58.87v11.833zm1.805-6.014v-4.287h2.268c1.782 0 2.518.838 2.518 2.178 0 1.335-.736 2.109-2.495 2.109h-2.29zm15.198-5.818h-2.091l3.792 5.916-3.816 5.916h2.104l2.875-4.564h.093l2.875 4.564h2.103l-3.75-5.916 3.727-5.916h-2.092l-2.863 4.628h-.093l-2.864-4.628z" fill="#1D1D3D"/></svg>