<svg width="214" height="75" fill="none" xmlns="http://www.w3.org/2000/svg"><path d="M56.336 43.207c4.514 3.134 9.912 1.078 9.912 1.078 3.534-3.085 5.447-4.652 8.44-7.64.239-.236-2.55 13.81-2.55 13.81-.64.912-1.234 1.435-2.16 2.252-.57.503-7.7 6.66-11.777 4.309-1.767-1.027-2.238-3.242-2.749-5.68-.141-.676-1.232-9.598.884-8.129zm-10.6 19.684c0 4.407 14.034 7.15 14.034 7.15.187-.494-5.398-3.722-.883-6.856 2.206-1.528-13.15-2.86-13.151-.294zM18.451 48.153c-6.87 3.133-11.188 22.573-11.188 22.573.427.196 11.58-11.36 22.975-12.26 5.414-.426 7.693 1.074 8.235.019 1.37-2.666-11.784-14.09-20.022-10.332zm3.828-35.99c-1.57-.656-9.324 1.095-15.802 12.16C.155 35.133 1.841 45.68 1.816 46.884c0 0 2.404-7.002 15.36-4.651 10.173 1.84 10.644-27.748 5.103-30.07z" fill="#85D0FF"/><path d="M19.776 13.57c-5.822 8.439-6.603 21.985-4.858 28.057 4.5 15.669 26.232 23.425 42.055 22.916 3.043-.098 7.312-.686 7.312-.686 11.09 1.225 24.733 9.99 24.733 9.99-9.619-9.402-9.422-12.928-9.422-12.928-.452-.088-3.288-.098-2.945-1.077 0 0 .234-1.257.785-1.91 0 0 .148-1.126.393-3.672.371-3.843 2.552-5.73 2.552-5.73-.238-.252-3.308 1.323-5.006 2.698-5.545 4.485-7.557 7.537-7.557 7.537a5.509 5.509 0 01-1.276-.196 10.891 10.891 0 01-4.71-2.35 20.05 20.05 0 01-3.828-4.603c-.483.049-8.44 6.88-22.164-1.708-9.636-6.029-16.443-25.157-15.917-25.42 0 0 1.286 3.291 4.319 6.758 7.323 8.37 21.199 11.28 32.486 8.912 16.021-3.361 24.929-15.644 28.07-21.912.088-.174-4.146-4.97-10.748-10.063 0 0-5.904-6.033-10.305-6.673C59.035.824 58.2 2.699 58.2 2.699c-3.828-.784-13.124-.98-17.176.244a23.011 23.011 0 00-2.944-1.077c-2.69-.725-6.426-.256-8.637 1.86-1.374 1.317-2.257 2.253-3.14 4.016 0 0-3.386 1.273-6.527 5.827z" fill="#85D0FF"/><path d="M23.58 35.314c5.495 7.597 10.598 14.805 19.625 17.727 4.335 1.433 8.831.722 13.196.45 1.018-6.234 1.962-10.103 2.404-13.134-13.965 1.627-29.137-1.33-37.47-12.817-.534-.745.842 5.746 2.245 7.774z" fill="#fff"/><path d="M35.036 9.258c-1.149-.196-5.877 2.235-8.282 4.618-4.668 4.629-3.093 9.776-2.609 10.941 1.3 3.134 5.363 8.086 14.872 9.51 8.073 1.208 11.814-1.019 12.285-1.175 8.215-2.743 8.541-11.069 8.541-11.069 1.115-1.584 2.766-4.804 2.766-4.804s-4.576.096-8.245-1.685c-5.311-2.573-10.69-4.898-19.328-6.336zM16.522 19.866c-.21-1.444-4.336 2.276-4.568 2.5-5.115 4.943-7.547 16.879-7.37 16.787 5.594-2.691 9.757-1.55 9.757-1.55-1.042-7.715 2.397-16.25 2.18-17.737zm-.574 10.071c-.392 1.258-.687 4.278.05 7.666 1.034 4.764 3.68 9.122 3.68 9.122.222-.312 1.49-1.83 1.49-1.83.981-1.051 2.781.71 2.355 1.029-2.506 1.915-9.606 10.345-13.544 18.905-.167.362 3.65-3.181 5.877-4.28 5.094-2.501 9.014-4.068 16.577-4.2 2.196-.035 3.777.304 4.175.911 0 0-.809 1.095-.453 1.526 1.177 1.436 11.516 3.052 11.516 3.052 3.231 5.852 9.2 6.414 9.2 6.414-.785-.989-1.998-5.008-.744-5.262 3.718-.76 11.17-.042 11.954.195 8.788 2.668 13.853 4.944 12.632 4.22-.14-.083-4.058-3.918-4.646-5.55 0 0-9.89 1.07-25.214-2.424-4.134-.942-14.233-4.002-15.815-6.039-5.398-6.953-9.566-9.707-12.198-10.406-4.34-1.15-6.892-13.049-6.892-13.049z" fill="#50B4F2"/><path d="M58.675 51.874c1.586.245 9.456-1.175 10.96-4.078 2.212-4.276 4.06-10.334 4.227-10.003.393.766-1.268 11.36-2.608 12.859-2.748 3.053-7.581 6.508-10.355 4.797-1.285-.796-3.129-3.716-2.224-3.575z" fill="#50B4F2"/><path d="M22.943 32.81c9.535 16.374 29.857 15.97 34.27 13.12.337-.22 1.005-5.832 1.005-5.832-.486-.392-16.204 2.51-25.434-2.545-8.143-4.46-10.312-10.2-11.566-9.412 0 0 .94 3.314 1.725 4.669z" fill="#E8E8E8"/><path d="M36.675 10.529c-4.16.648-8.704 4.309-9.422 9.793-.308 2.337-.131 6.158 1.504 6.726.215.075 3.925 3.606 8.876 4.995 3.356.938 10.119.344 10.82.098 4.571-1.614 7.294-5.093 7.851-6.072.907-1.585 2.748-5.484 1.046-7.77-1.702-2.286-19.226-7.995-20.675-7.77z" fill="#fff"/><path d="M39.62 10.92c-4.16.65-8.967 3.99-10.11 9.402-1.448 6.856 4.185 10.499 7.247 11.035 5.324.93 8.833-.291 9.544-.538 4.572-1.614 7.09-5.541 7.655-6.513.907-1.584 2.748-5.484 1.046-7.77-1.701-2.285-13.934-5.84-15.383-5.615z" fill="#1D1D3D"/><path d="M37.586 20.975c1.809 0 3.276-1.372 3.276-3.064s-1.467-3.063-3.276-3.063c-1.81 0-3.276 1.371-3.276 3.063 0 1.692 1.466 3.064 3.276 3.064z" fill="#fff"/><path d="M84.28 16.884c-.123-.185-12.136-10.596-15.64-12.93-3.194-2.125-6.521-2.393-7.69-2.299-1.724.149-1.284.92-3.308 1.224-1.735.259-1.042.312-3.604 0-1.827-.223-5.429-1.175-6.667-.881-5.207 1.224-11.643.186-14.161.685-1.153.228-3.919.784-5.062 2.939-.56 1.062-2.014 3.018-1.557 3.297.136.082 3.837-2.997 6.247-3.546 3.644-.829 8.347.445 8.347.445 10.549 3.633 17.654 6.072 17.362 5.485-.642-1.284-12.194-5.193-12.106-5.78.04-.267.558-.418 2.53-.685 6.132-.832 12.897.294 14.795.62.305.052-3.422-1.262-3.31-1.697.078-.278 1.322-.196 2.247-.028 1.709.318 2.275.535 4.088 1.252 2.229.884 10.334 8.259 13.64 12.145-.18.014-1.495-.164-1.688-.15-4.053.278-6.352 1.986-9.764 4.287-5.511 3.722-4.88 14.406-29.104 17.435-2.04.256 2.071 1.294 6.866 1.596 16.71 1.048 24.43-6.072 32.606-13.908 1.243-1.193 4.366-4.576 5.255-7.967a1.927 1.927 0 00-.323-1.54zm-65.24-3.056c-.632-.567-2.685.756-3.926 1.566a30.288 30.288 0 00-7.36 6.758C3.59 27.832 2.52 33.569 1.962 36.744c-.937 5.34.141 8.26.369 8.275.326.022-.648-3.526 2.243-11.703 2.07-5.85 7.67-12.34 13.19-15.18.727-.374 2.02-3.643 1.275-4.308zm21.592 39.36c-.226.51 4.774 2.537 6.527 3.526 1.974 1.122 6.846 3.163 12.984 4.058 7.53 1.1 9.197.698 11.16-1.958.147-.196 7.262-8.726 8.342-9.94.251-.282-9.06 8.488-10.06 8.911-1.951.827-3.245 1.023-5.202.294-2.944-1.099-3.859-4.88-6.34-5.092-.922-.079-1.394.276-2.997.832-1.129.392-3.95.18-7.691-.133-5.824-.474-6.48-1.046-6.723-.498zm17.075-5.182c1.504.674 8.525.016 10.16-1.281 2.16-1.712 5.995-8.931 5.995-8.931s-1.841 1.502-3.492 3.16c-3.91 3.93-3.57 4.045-4.318 4.408-3.255 1.567-7.618-.821-7.618-.821l-.727 3.465z" fill="#DEFFFD"/><path d="M79.48 60.653s-1.674-.356-2.509-.634c.16-.42 1.584-1.503 1.584-1.503-.18-1.34-.457-2.595-.231-3.964.375-2.26 2.5-5.484 4.069-7.133l-3.683.871c-2.241 1.618-5.35 4.14-10.719 9.598-.196.196-1.633-.288-2.995-.876 2.777-1.78 6.964-4.942 7.24-5.788a41.328 41.328 0 001.055-4.375c.457-2.31 2.355-11.41 2.355-11.41-.899.228-9.422 8.066-9.692 8.227-.89.539-5.175.99-7.524-.503-.036.381-.466 2.634-.466 2.634 7.067 1.228 9.122.35 9.574.121l-2.024-.327c2.5-.648 7.376-6.547 8.063-7.09.09 2.129-2.141 11.39-2.269 11.613-.392.685-6.53 3.639-9.65 4.853a17.548 17.548 0 01-3.368-4.21l-.078-.038s-3.553 1.78-4.727 2.088c-4.189 1.097-8.672.54-12.549-1.258-14.093-6.536-18.844-21.719-19.085-22.254 2.159 3.062 5.649 6.452 8.833 8.305 5.584 3.253 12.193 4.689 18.626 4.656a37.332 37.332 0 0018.498-4.97c4.79-2.76 9.165-6.659 12.916-10.704 2.503-2.693 5.055-7.002 4.76-9.058-.196-1.428-6.183-6.438-10.158-9.523-.708-.55-1.519-1.42-2.159-1.988a38 38 0 00-2.294-1.906C68.423 2.262 65.765.638 62.636.482c-1.13-.057-2.37.004-3.382.57-.353.195-.589.613-.891.783-.196.114.063.02-.273-.088a4.38 4.38 0 00-.734-.12 31.73 31.73 0 00-1.826-.211 61.556 61.556 0 00-4.375-.227c-2.854-.047-5.779 0-8.59.548-.378.075-.981.35-1.342.308-.55-.065-1.203-.504-1.73-.69a10.916 10.916 0 00-4.71-.65c-3.2.29-5.736 2.154-7.509 4.77-.263.39-.492 1.104-.806 1.398a3.074 3.074 0 01-.59.278 13.992 13.992 0 00-2.406 1.64 19.435 19.435 0 00-3.168 3.411c-4.988 1.097-9.646 4.7-12.623 8.742-3.43 4.66-5.265 10.075-6.086 15.733-.528 3.638-.851 8.342-.622 12.015.018.278 4.711-8 14.09-5.876a21.365 21.365 0 002.324 5.345C6.933 57.021 7.18 70.779 7.19 70.856c6.707-5.459 15.095-10.099 23.325-11.08 4.886 2.566 10.27 4.256 15.65 5.221l.212.038c5.606 5.02 11.748 6.093 14.133 5.05.126-.056-3.252-2.672-2.991-4.245h.245c2.08-.098 4.158-.327 6.223-.588 1.676-.215 3.576.392 5.188.819 7.021 1.827 14.606 4.48 20.706 8.393.19.11-8.371-9.296-10.401-13.81zm4.894 9.431c-3.43-1.85-6.922-3.026-10.543-4.34-2.09-.762-5.712-2.104-8.396-2.27-1.468-.092-6.523.1-8.711.156-.665 4.208 1.951 5.628 1.951 5.628-7.524-.075-11.385-5.222-11.71-6.315-4.396-.701-8.854-1.88-12.17-3.402-1.832-1.12 1.193-2.155 1.203-2.155-9.948-.484-19.826 3.577-26.647 10.753 1.951-3.298 5.68-7.793 12.013-9.883 0 0-5.104.327-11.407 6.322 1.848-7.229 12.367-20.818 11.854-20.43-1.258.952-1.23.832-2.335 1.94-4.083-2.404-5.247-11.36-5.404-12.292-.02 1.224.014 2.407.088 3.573.07 1.086.2 2.168.393 3.24-4.725-.185-8.912-.165-11.935 3.445.196-6.724.854-11.466 3.926-17.55 2.734-5.431 8.085-9.815 11.903-11.338a32.708 32.708 0 00-1.503 3.104c-4.515 2.628-9.24 8.334-10.347 13.814 2.836-6.896 7.01-10.251 9.657-11.818 0 0-.376 2.785-.268 2.476.702-2.018 1.923-4.65 4.077-7.902 1.529-2.313 3.617-4.414 6.147-5.648.12-.042.236-.095.346-.159.255-.208.436-.783.628-1.085.238-.386.5-.757.785-1.11 1.033-1.272 2.267-2.51 3.787-3.174a9.05 9.05 0 01.532-.211c.736-.227 2.114-.28 2.852-.294 3.119-.057 6.065 1.418 8.864 2.593a387.94 387.94 0 0014.43 5.817c.846.324-8.737-5.605-14.133-7.9 1.5-.177 3.009-.255 4.514-.285 1.767-.033 3.557-.03 5.341.085 4.374.34 8.484 1.901 9.532 2.256.44.149-1.44-1.158-4.72-2.292.108-.082.223-.156.343-.221.946-.517 2.124-.588 3.176-.539 3.372.132 6.181 1.926 8.788 3.967.722.564 1.403 1.175 2.087 1.786.306.274 10.796 8.814 10.896 9.558.074.601-.968 2.611-1.498 3.33a59.108 59.108 0 01-3.867 4.675c-3.57 3.917-7.706 7.353-12.408 9.827-10.403 5.472-23.664 5.76-34.21.452-4.457-2.245-8.522-5.837-10.95-10.275-.15.384-.348.748-.59 1.083a46.532 46.532 0 002.18 7.835c1.55 4.066 6.153 14.38 22.681 21.625 9.03 3.962 18.467 5.161 17.608 4.954-4.59-1.111-10.343-1.836-17.836-7.247 5.542.9 8.048.744 11.124-.465.433-.176.877-.32 1.331-.43 0 0 4.74 6.095 9.844 6.682 0 0 1.04-.664 1.276-.918a94.23 94.23 0 011.723-1.818 97.373 97.373 0 015.179-4.96c1.075-.951 2.159-1.909 3.337-2.753l.049-.035c-2.16 2.938-3.141 5.997-2.694 9.01 0 0-1.409 1.353-1.452 1.825 0 0 2.11 1.077 2.717 1.271.718 1.154 2.926 5.388 6.575 8.444l-.003-.012z" fill="#1D1D3D"/><path d="M20.332 24.328c.011 0 .02.041.023.104-.047-.135-.023-.104-.023-.104zm35.293 26.228c-.026-.135.037.24 0 .033v-.033zm26.079-32.171l.243-.411c-4.797-1.21-10.248.511-13.573 4.15-.21.23 4.346-4.287 13.33-3.739zm-1.831 41.673c.015-.011.02-.022.017-.032a.05.05 0 00-.017.032zm.251.732a.195.195 0 010 .038v-.05c-.01-.033-.024-.053 0 .05a.045.045 0 000-.038zM62.609 17.155c-7.983-3.647-20.293-8.148-23.031-8.65-2.65-.483-6.73.163-9.422 2.939 0 0-2.833 2.023-4.044 6.203-1.462 5.067 2.268 9.957 2.448 10.065 2.564 2.971 5.763 4.542 9.618 5.406 4.515 1.017 9.748.98 13.89-1.467.086-.051 7.392-4.056 6.617-12.112.655.342 3.924-2.384 3.924-2.384zm-11.016 12.76a.352.352 0 00-.157.048c-3.95 2.35-8.66 1.97-12.977 1.036-4.093-.886-7.512-2.231-10.123-5.66-1.35-2.467-1.29-5.857-.12-8.159 1.298-2.546 4.869-4.896 7.834-5.848 1.259-.092 2.611-.104 3.65.104a50.047 50.047 0 018.036 2.323c4.595 1.762 6.3 2.215 9.716 4.832.518 4.28-2.15 8.886-5.86 11.325zm-32.655-2.316c-.618.292-.212 2.497.308 2.11 1.745-1.3 2.711-3.272 2.87-5.42.024-.306-.32-1.763-.367-1.342-.206 1.804-1.064 3.831-2.811 4.652z" fill="#1D1D3D"/><path d="M56.63 52.753l2.474-13.298-2.783.927-2.784 13.299 3.093-.928zm57.218-19.361c-1.587 0-3.127-.196-4.62-.588-1.493-.392-2.707-.915-3.64-1.568l1.82-4.088c.877.579 1.895 1.045 3.052 1.4s2.296.532 3.416.532c2.128 0 3.192-.532 3.192-1.596 0-.56-.308-.97-.924-1.232-.597-.28-1.568-.57-2.912-.868-1.475-.317-2.707-.653-3.696-1.008a6.343 6.343 0 01-2.548-1.764c-.709-.803-1.064-1.885-1.064-3.248 0-1.195.327-2.268.98-3.22.653-.97 1.624-1.736 2.912-2.296 1.307-.56 2.903-.84 4.788-.84 1.288 0 2.557.15 3.808.448 1.251.28 2.352.7 3.304 1.26l-1.708 4.116c-1.867-1.008-3.677-1.512-5.432-1.512-1.101 0-1.904.168-2.408.504-.504.317-.756.737-.756 1.26s.299.915.896 1.176c.597.261 1.559.532 2.884.812 1.493.317 2.725.663 3.696 1.036a6.101 6.101 0 012.548 1.736c.728.784 1.092 1.857 1.092 3.22 0 1.176-.327 2.24-.98 3.192s-1.633 1.717-2.94 2.296c-1.307.56-2.893.84-4.76.84zM144.737 13.4V33h-5.544v-7.644h-7.56V33h-5.544V13.4h5.544v7.364h7.56V13.4h5.544zm18.043 15.792h-8.288L152.952 33h-5.657l8.653-19.6h5.46l8.68 19.6h-5.768l-1.54-3.808zm-1.624-4.088l-2.52-6.272-2.52 6.272h5.04zm20.071 2.688h-3.024V33h-5.544V13.4h8.96c1.774 0 3.314.299 4.62.896 1.307.579 2.315 1.419 3.024 2.52.71 1.083 1.064 2.361 1.064 3.836 0 1.419-.336 2.66-1.008 3.724-.653 1.045-1.596 1.867-2.828 2.464l4.228 6.16h-5.936l-3.556-5.208zm3.5-7.14c0-.915-.289-1.624-.868-2.128-.578-.504-1.437-.756-2.576-.756h-3.08v5.74h3.08c1.139 0 1.998-.243 2.576-.728.579-.504.868-1.213.868-2.128zm17.219 5.236l-2.072 2.212V33h-5.488V13.4h5.488v8.148l7.588-8.148h6.104l-8.008 8.68L213.986 33h-6.44l-5.6-7.112zm-95.69 19.234h5.946V62h2.289V45.122h5.947v-2.031h-14.182v2.031zM125.971 62h2.29v-7.386h4.137c.166 0 .323 0 .48-.01L136.866 62h2.659l-4.274-7.811c2.409-.822 3.536-2.788 3.536-5.3 0-3.342-1.995-5.798-6.426-5.798h-6.39V62zm2.29-9.455v-7.423h4.026c3.065 0 4.247 1.496 4.247 3.767s-1.182 3.656-4.21 3.656h-4.063zm32.296 0c0-5.983-3.509-9.713-8.347-9.713-4.838 0-8.346 3.73-8.346 9.713 0 5.983 3.508 9.713 8.346 9.713s8.347-3.73 8.347-9.713zm-2.216 0c0 4.912-2.696 7.572-6.131 7.572-3.434 0-6.13-2.66-6.13-7.572s2.696-7.57 6.13-7.57c3.435 0 6.131 2.658 6.131 7.57zm23.06-9.454h-2.253v14.883h-.184l-10.341-14.883h-2.216V62h2.29V47.153h.184L179.185 62h2.216V43.09z" fill="#1D1D3D"/><path opacity=".25" d="M191 42l.459.078c.608.107 1.217.212 1.822.32l1.948.34c.603.106 1.209.214 1.812.319l1.813.316c.608.107 1.217.212 1.822.32l1.835.322 1.813.316c.603.105 1.206.213 1.812.318.608.108 1.217.213 1.825.32.404.071.808.145 1.212.213a.307.307 0 01.149.073l3.26 2.951 1.312 1.188c.031.027.068.048.106.075L200.604 65c-3.202-7.673-6.399-15.327-9.604-23z" fill="#FF64AD"/><path d="M191 42l.459.078c.608.107 1.217.212 1.822.32l1.948.34c.603.106 1.209.214 1.812.319l1.813.316c.608.107 1.217.212 1.822.32l1.835.322 1.813.316c.603.105 1.206.213 1.812.318.608.108 1.217.213 1.825.32.404.071.808.145 1.212.213a.307.307 0 01.149.073l3.26 2.951 1.312 1.188c.031.027.068.048.106.075L200.604 65c-3.202-7.673-6.399-15.327-9.604-23zm9.547 19.598l.031-.007c.024-.18.048-.361.07-.544.05-.391.098-.785.149-1.176.05-.4.101-.798.154-1.199.05-.389.098-.777.146-1.164l.152-1.176c.05-.391.098-.785.146-1.176l.152-1.187c.05-.391.098-.785.149-1.176.058-.453.115-.908.175-1.361.012-.092-.009-.151-.089-.215-1.243-.977-2.481-1.956-3.721-2.935l-4.448-3.51a1.96 1.96 0 00-.094-.07c-.007.004-.014.011-.021.016l7.049 16.88zm1.307.01a.1.1 0 01.027.015c3.221-3.733 6.441-7.466 9.662-11.202-.005-.007-.007-.014-.012-.02-.041.004-.082.006-.123.013-.101.018-.204.039-.305.055-.913.158-1.829.313-2.743.469-.957.164-1.911.331-2.866.496-.767.133-1.534.263-2.3.396-.097.016-.099.016-.111.105-.038.284-.075.565-.111.849-.05.389-.098.778-.146 1.164-.051.4-.101.799-.154 1.2-.051.388-.099.777-.147 1.163l-.151 1.188c-.051.391-.099.784-.149 1.176l-.152 1.187c-.05.4-.103.798-.154 1.199a63.62 63.62 0 01-.065.546zm5.691-15.458l-.002-.03c-4.369-.766-8.737-1.53-13.105-2.294l-.012.025c2.673 2.111 5.349 4.22 8.03 6.337 1.699-1.35 3.394-2.695 5.089-4.038zm1.416.453c-.029.02-.053.034-.077.055l-4.729 3.754a.008.008 0 000 .009c0 .002.003.004.012.018l7.573-1.306c-.05-.08-2.57-2.375-2.779-2.53z" fill="#FF64AD"/></svg>